<svg width="80" height="80" viewBox="0 0 80 80" fill="none" xmlns="http://www.w3.org/2000/svg">
<path d="M72.1823 55.3993L40 36.7497L7.81771 55.3993C6.96072 55.896 6.24931 56.6091 5.75478 57.4674C5.26024 58.3256 4.99996 59.2987 5 60.2893C5 63.4105 7.52973 65.9407 10.6503 65.9407H69.3498C72.4703 65.9407 75 63.4105 75 60.2893C75 59.2987 74.7398 58.3256 74.2452 57.4674C73.7507 56.6091 73.0393 55.896 72.1823 55.3993Z" stroke="#0E0C0D" stroke-width="6" stroke-miterlimit="10" stroke-linecap="round" stroke-linejoin="round"/>
<path d="M32.8066 22.1944C32.8066 18.1277 36.1797 14.8492 40.2801 15.0049C44.0082 15.1466 47.0461 18.1851 47.1877 21.914C47.2961 24.7671 45.7427 27.2682 43.4185 28.5262C41.3372 29.6527 39.9998 31.7866 39.9998 34.1535V36.7498" stroke="#0E0C0D" stroke-width="6" stroke-miterlimit="10" stroke-linecap="round" stroke-linejoin="round"/>
</svg>
