<svg width="80" height="80" viewBox="0 0 80 80" fill="none" xmlns="http://www.w3.org/2000/svg">
<path d="M14 15.499V64.499C14 65.4273 14.3687 66.3175 15.0251 66.9739C15.6815 67.6303 16.5717 67.999 17.5 67.999H28V60.999H21V18.999H28V11.999H17.5C16.5717 11.999 15.6815 12.3678 15.0251 13.0242C14.3687 13.6805 14 14.5708 14 15.499ZM63.847 12.104L35.847 5.10403C35.3311 4.97538 34.7928 4.96592 34.2727 5.07639C33.7527 5.18686 33.2647 5.41434 32.8457 5.74158C32.4267 6.06881 32.0877 6.4872 31.8546 6.96499C31.6214 7.44277 31.5001 7.96739 31.5 8.49903V71.499C31.4988 72.0311 31.6191 72.5564 31.8519 73.0349C32.0846 73.5134 32.4236 73.9324 32.843 74.2599C33.2623 74.5874 33.7509 74.8148 34.2716 74.9247C34.7922 75.0346 35.331 75.0241 35.847 74.894L63.847 67.894C64.6045 67.7051 65.2771 67.2683 65.7578 66.6531C66.2385 66.038 66.4997 65.2797 66.5 64.499V15.499C66.4997 14.7183 66.2385 13.9601 65.7578 13.3449C65.2771 12.7297 64.6045 12.293 63.847 12.104ZM49 40.657C49 41.5853 48.6312 42.4755 47.9748 43.1319C47.3185 43.7883 46.4282 44.157 45.5 44.157C44.5717 44.157 43.6815 43.7883 43.0251 43.1319C42.3687 42.4755 42 41.5853 42 40.657V39.3375C42.0004 38.4093 42.3696 37.5192 43.0263 36.8632C43.6831 36.2071 44.5735 35.8388 45.5017 35.8393C46.43 35.8397 47.32 36.2089 47.9761 36.8656C48.6321 37.5223 49.0004 38.4128 49 39.341V40.657Z" fill="#0E0C0D"/>
</svg>
