<svg width="80" height="80" viewBox="0 0 80 80" fill="none" xmlns="http://www.w3.org/2000/svg">
<path d="M69.3839 53.528L63.2793 47.4233C61.6168 45.7608 62.7951 42.9171 65.146 42.9171H77.3553C79.7061 42.9171 80.8845 45.7608 79.222 47.4233L73.1173 53.528C72.0877 54.5576 70.4135 54.5576 69.3839 53.528ZM69.3839 26.4727L63.2793 32.5774C61.6168 34.2399 62.7951 37.0837 65.146 37.0837H77.3553C79.7061 37.0837 80.8845 34.2399 79.222 32.5774L73.1173 26.4727C72.0877 25.4431 70.4135 25.4431 69.3839 26.4727ZM36.2503 5H24.5835C16.5422 5 10 11.5422 10 19.5835V60.4172C10 68.4586 16.5422 75.0007 24.5835 75.0007H36.2503V5ZM65.2597 22.3456C66.1581 21.4502 67.2139 20.8172 68.3339 20.4089V19.5835C68.3339 11.5422 61.7918 5 53.7504 5H42.0837V75.0007H53.7504C61.7918 75.0007 68.3339 68.4586 68.3339 60.4172V59.5918C67.2139 59.1805 66.1581 58.5505 65.2597 57.6551L59.1522 51.5505C56.7196 49.1209 55.9992 45.4954 57.3146 42.3191C57.6734 41.4529 58.1692 40.6829 58.7613 40.0033C58.1722 39.3237 57.6734 38.5508 57.3146 37.6874C55.9992 34.5111 56.7196 30.8857 59.1522 28.4532L65.2597 22.3456Z" fill="#0E0C0D"/>
</svg>
