<svg width="80" height="80" viewBox="0 0 80 80" fill="none" xmlns="http://www.w3.org/2000/svg">
<path d="M41.1187 15.6777C28.3155 15.6777 17.9365 26.0567 17.9365 38.8599C17.9365 51.6631 28.3155 62.0421 41.1187 62.0421C53.9219 62.0421 64.3009 51.6631 64.3009 38.8599C64.3009 26.0567 53.9219 15.6777 41.1187 15.6777ZM41.1186 56.45C31.4195 56.45 23.5286 48.5591 23.5286 38.86C23.5286 29.1609 31.4195 21.2701 41.1186 21.2701C50.8177 21.2701 58.7085 29.1609 58.7085 38.86C58.7085 48.5591 50.8178 56.45 41.1186 56.45Z" fill="#0E0C0D"/>
<path d="M41.1184 25.9848C34.0191 25.9848 28.2434 31.7605 28.2434 38.8597C28.2434 45.959 34.0191 51.7347 41.1184 51.7347C48.2176 51.7347 53.9933 45.959 53.9933 38.8597C53.9933 31.7605 48.2178 25.9848 41.1184 25.9848ZM73.5392 40.8035V12.633C73.5391 12.5004 73.4974 12.3712 73.42 12.2636C73.3427 12.1559 73.2334 12.0753 73.1078 12.033C72.9821 11.9908 72.8464 11.989 72.7197 12.028C72.593 12.067 72.4817 12.1447 72.4015 12.2503C68.8868 16.8854 66.9844 22.5429 66.9845 28.3599V38.6655C66.9845 39.8474 67.9426 40.8057 69.1246 40.8057H70.0169C69.1374 49.8897 68.5562 62.5945 68.5562 64.0822C68.5562 66.4258 69.9987 68.3256 71.7781 68.3256C73.5575 68.3256 75 66.4257 75 64.0822C75 62.5944 74.4188 49.8875 73.5392 40.8035ZM14.3539 35.2193C16.137 34.1393 17.3288 32.1809 17.3288 29.9439L16.4455 15.5035C16.4279 15.2289 16.3025 14.9725 16.0967 14.7899C15.8908 14.6073 15.6212 14.5134 15.3465 14.5286C15.0718 14.5439 14.8142 14.667 14.6298 14.8712C14.4454 15.0754 14.3491 15.3442 14.362 15.6191L14.9363 27.2004C14.9363 27.513 14.8121 27.8128 14.5911 28.0338C14.37 28.2548 14.0703 28.379 13.7577 28.379C13.4451 28.379 13.1453 28.2548 12.9242 28.0338C12.7032 27.8128 12.579 27.513 12.579 27.2004L12.292 15.6238C12.2841 15.3301 12.1618 15.051 11.9513 14.846C11.7407 14.641 11.4584 14.5263 11.1645 14.5263C10.8706 14.5263 10.5884 14.641 10.3778 14.846C10.1672 15.051 10.0449 15.3301 10.037 15.6238L9.75002 27.2004C9.75002 27.513 9.62584 27.8128 9.4048 28.0338C9.18376 28.2548 8.88397 28.379 8.57137 28.379C8.25877 28.379 7.95897 28.2548 7.73793 28.0338C7.51689 27.8128 7.39271 27.513 7.39271 27.2004L7.96707 15.6191C7.9966 15.0234 7.52109 14.5239 6.925 14.5239C6.65931 14.5239 6.40362 14.6252 6.2101 14.8073C6.01658 14.9893 5.89981 15.2383 5.88361 15.5035L5 29.944C5 32.181 6.19164 34.1392 7.97486 35.2195C8.5433 35.564 9.00138 36.0639 9.29511 36.6602C9.58885 37.2566 9.70598 37.9244 9.63271 38.5851C8.62605 47.6575 7.94246 62.4689 7.94246 64.0823C7.94246 66.4259 9.38498 68.3258 11.1644 68.3258C12.9438 68.3258 14.3863 66.4258 14.3863 64.0823C14.3863 62.4689 13.7026 47.6575 12.696 38.5851C12.6229 37.9244 12.7401 37.2566 13.0338 36.6603C13.3275 36.064 13.7855 35.564 14.3539 35.2193Z" fill="#0E0C0D"/>
</svg>
