<svg width="80" height="80" viewBox="0 0 80 80" fill="none" xmlns="http://www.w3.org/2000/svg">
<path d="M62.5837 57.6312L51.41 54.8371L50.7654 52.2559C58.4741 50.958 62.4407 48.648 62.6157 48.5459C63.0299 48.3037 63.2866 47.8634 63.3216 47.385C63.3537 46.9066 63.1407 46.4371 62.7645 46.1366C62.7121 46.0959 57.5 41.7909 57.5 26.875C57.5 14.2954 54.5571 7.91662 48.75 7.91662H47.8896C45.7954 5.8925 44.2234 5 40 5C34.5196 5 22.5 10.5096 22.5 26.875C22.5 41.7909 17.2879 46.0959 17.25 46.125C17.059 46.2683 16.906 46.4562 16.8043 46.6723C16.7026 46.8884 16.6553 47.1261 16.6666 47.3646C16.6788 47.6034 16.7496 47.8355 16.8727 48.0405C16.9958 48.2455 17.1675 48.417 17.3725 48.54C17.5475 48.645 21.4762 50.9666 29.2316 52.2616L28.587 54.837L17.4134 57.6312C10.1041 59.46 5 65.9991 5 73.5416C5 74.3466 5.65338 75 6.45838 75H73.5418C74.3468 75 75.0001 74.3409 75.0001 73.5359C75.0046 69.8788 73.7843 66.3256 71.5339 63.443C69.2835 60.5603 66.1326 58.5143 62.5837 57.6312Z" fill="#0E0C0D"/>
</svg>
