<svg width="80" height="80" viewBox="0 0 80 80" fill="none" xmlns="http://www.w3.org/2000/svg">
<path d="M72.7989 56.3643L70.9912 54.4545C72.7629 51.797 74.7984 47.0594 69.4101 44.236C64.9551 41.9017 60.5002 40.3295 56.2689 37.596C53.7097 35.9419 51.4445 33.8722 49.5667 31.4724L46.8102 34.2288C46.6202 34.4192 46.3946 34.5702 46.1461 34.6732C45.8976 34.7761 45.6313 34.829 45.3623 34.8286C45.0934 34.829 44.827 34.7762 44.5785 34.6732C44.33 34.5703 44.1044 34.4193 43.9145 34.2288C43.1148 33.4293 43.1148 32.1327 43.9145 31.333L47.0379 28.2096C47.1077 28.1409 47.1824 28.0772 47.2613 28.0192C46.7292 27.0756 46.2529 26.1016 45.8351 25.1022L43.534 27.4032C43.3441 27.5937 43.1184 27.7447 42.8699 27.8476C42.6215 27.9506 42.3551 28.0034 42.0862 28.0031C41.8172 28.0034 41.5509 27.9506 41.3024 27.8477C41.0539 27.7447 40.8282 27.5937 40.6383 27.4032C39.8387 26.6037 39.8387 25.3071 40.6383 24.5074L43.7617 21.384C43.936 21.2103 44.1403 21.0696 44.3647 20.9688C43.994 19.8225 43.6486 18.6681 43.3288 17.5066L40.3943 20.4412C40.2043 20.6316 39.9787 20.7826 39.7302 20.8855C39.4817 20.9885 39.2154 21.0413 38.9464 21.041C38.6775 21.0413 38.4111 20.9885 38.1626 20.8856C37.9142 20.7826 37.6885 20.6316 37.4986 20.4412C36.6989 19.6416 36.6989 18.3449 37.4986 17.5453L40.622 14.422C41.0846 13.9593 41.7135 13.7662 42.3163 13.8389C41.2713 11.415 38.8137 9.83176 36.1023 10.0143C31.5556 10.3203 25.1382 11.7754 20.0575 16.9193C19.0618 17.9273 18.4435 19.2464 18.2865 20.6547C18.0427 22.8416 17.4044 26.6117 15.7454 30.3408C13.8003 34.7129 13.323 39.5944 14.5936 44.1954L14.5991 44.2149C14.9137 45.3498 15.8338 46.2152 16.9808 46.483C21.5848 47.5582 33.897 50.493 36.6261 51.7577C39.0489 52.8803 46.7378 55.3403 52.0305 56.1801C52.0212 56.258 52.0164 56.3363 52.016 56.4148V65.5117H23.4607V57.78H25.876C26.1112 57.7803 26.3412 57.7103 26.5363 57.5789C26.7315 57.4475 26.8829 57.2608 26.9711 57.0427C27.296 56.2362 27.9028 54.8882 28.7676 53.6141C25.6536 52.7826 21.411 51.7231 16.0495 50.4712C15.9382 50.4453 15.8284 50.4159 15.7191 50.3851C16.0802 52.3754 16.3516 54.6443 16.1976 56.4968C16.1401 57.1873 16.6814 57.7801 17.3742 57.7801H19.3654V65.5119H7.04767C5.91681 65.5119 5 66.4287 5 67.5596C5 68.6904 5.91681 69.6072 7.04767 69.6072H67.2157C67.3181 69.6072 67.4201 69.6054 67.5217 69.602C70.6009 69.498 73.2386 67.648 74.4052 64.7738C75.5917 61.8505 74.9763 58.6283 72.7989 56.3643ZM70.6106 63.2332C70.0523 64.6087 68.8458 65.4595 67.3831 65.5089C67.3273 65.5108 67.2714 65.5117 67.2156 65.5117H56.1112V56.4149H67.4643L69.8471 59.2031C71.091 60.4966 71.0573 62.1331 70.6106 63.2332Z" fill="#0E0C0D"/>
</svg>
