<svg width="80" height="80" viewBox="0 0 80 80" fill="none" xmlns="http://www.w3.org/2000/svg">
<path d="M32.2906 68.1737C24.4528 68.1737 18.0765 61.7972 18.0765 53.9596C18.0765 47.4195 22.5166 41.898 28.5403 40.2486V33.2527C18.709 35.0214 11.25 43.6192 11.25 53.9596C11.25 65.5801 20.6701 75 32.2906 75C41.5329 75 49.3826 69.041 52.2088 60.7554L46.502 54.157C46.3959 61.9039 40.0621 68.1737 32.2906 68.1737Z" fill="#0E0C0D"/>
<path d="M35.2346 19.7153C39.2981 19.7153 42.5923 16.4212 42.5923 12.3577C42.5923 8.29413 39.2981 5 35.2346 5C31.1711 5 27.877 8.29413 27.877 12.3577C27.877 16.4212 31.1711 19.7153 35.2346 19.7153Z" fill="#0E0C0D"/>
<path d="M65.5003 57.0211H62.2322L53.2691 46.2469C52.9487 45.8619 52.5476 45.5522 52.0942 45.3396C51.6408 45.127 51.1461 45.0167 50.6453 45.0167H38.3342V38.731H48.1C49.9849 38.731 51.5132 37.2029 51.5132 35.3179C51.5132 33.4328 49.9849 31.9047 48.1 31.9047H38.3342V24.9863C38.3342 23.1012 36.8059 21.5731 34.921 21.5731C33.0358 21.5731 31.5078 23.1012 31.5078 24.9863V48.4299C31.5078 50.315 33.0358 51.8431 34.921 51.8431H49.045L58.0081 62.6172C58.3284 63.0022 58.7295 63.312 59.183 63.5246C59.6364 63.7373 60.1311 63.8475 60.6319 63.8475H65.5003C67.3853 63.8475 68.9135 62.3193 68.9135 60.4343C68.9135 58.5492 67.3853 57.0211 65.5003 57.0211Z" fill="#0E0C0D"/>
</svg>
