<svg width="80" height="80" viewBox="0 0 80 80" fill="none" xmlns="http://www.w3.org/2000/svg">
<path d="M35.3126 14.3596C37.8972 14.3596 39.9924 12.2644 39.9924 9.67978C39.9924 7.09521 37.8972 5 35.3126 5C32.728 5 30.6328 7.09521 30.6328 9.67978C30.6328 12.2644 32.728 14.3596 35.3126 14.3596Z" fill="#0E0C0D"/>
<path d="M28.7311 42.7397C28.7243 42.8531 28.7407 42.9667 28.7794 43.0735C28.8181 43.1804 28.8782 43.2782 28.9561 43.3609C29.0339 43.4437 29.1279 43.5096 29.2322 43.5547C29.3365 43.5998 29.449 43.6231 29.5626 43.6231H34.1837C34.3822 43.6231 34.5742 43.5522 34.7251 43.4232C34.8759 43.2942 34.9758 43.1155 35.0066 42.9194L35.337 40.8155L35.8155 42.9707C35.8566 43.1558 35.9595 43.3213 36.1074 43.4399C36.2553 43.5586 36.4392 43.6232 36.6288 43.6231H41.1115C41.2251 43.6231 41.3375 43.5998 41.4418 43.5547C41.5461 43.5096 41.6401 43.4437 41.718 43.3609C41.7959 43.2782 41.856 43.1804 41.8947 43.0735C41.9334 42.9667 41.9498 42.8531 41.943 42.7397L41.3172 35.9699H29.357L28.7311 42.7397ZM29.3569 32.415H41.317V34.3396H29.3569V32.415ZM13.4343 34.1735C15.485 34.1735 17.1499 32.5116 17.1499 30.4579C17.1499 28.4058 15.4864 26.7423 13.4343 26.7423C11.3823 26.7423 9.71875 28.4058 9.71875 30.4579C9.71875 32.5093 11.3815 34.1735 13.4343 34.1735ZM71.1095 70.3024C69.9006 71.5113 67.9335 71.5113 66.7248 70.3024C64.0371 67.6148 59.6642 67.6148 56.9765 70.3024C55.7676 71.5113 53.8006 71.5113 52.5918 70.3024C51.8514 69.5618 50.6505 69.5618 49.9101 70.3024C49.1695 71.0429 49.1695 72.2436 49.9101 72.9842C52.5977 75.6718 56.9706 75.6718 59.6583 72.9842C60.8672 71.7753 62.8341 71.7753 64.043 72.9842C65.3868 74.3279 67.1519 74.9998 68.9171 74.9998C70.6823 74.9998 72.4473 74.3279 73.7912 72.9842C74.5318 72.2437 74.5318 71.043 73.7912 70.3024C73.0506 69.5618 71.8498 69.5618 71.1095 70.3024Z" fill="#0E0C0D"/>
<path d="M59.6582 65.8493C60.8671 64.6404 62.834 64.6404 64.0429 65.8493C65.3866 67.1931 67.1518 67.865 68.917 67.865C70.6822 67.865 72.4472 67.1931 73.7911 65.8493C74.5317 65.1089 74.5317 63.9082 73.7911 63.1676C73.0507 62.427 71.8498 62.427 71.1094 63.1676C69.9005 64.3765 67.9334 64.3765 66.7246 63.1676C64.037 60.4799 59.6641 60.4799 56.9764 63.1676C55.7675 64.3765 53.8004 64.3765 52.5917 63.1676C51.8512 62.427 50.6504 62.427 49.9099 63.1676C49.1693 63.908 49.1693 65.1087 49.9099 65.8493C52.5976 68.537 56.9705 68.537 59.6582 65.8493ZM44.5654 40.0256C45.8125 40.0194 46.8184 39.0033 46.8122 37.7564L46.7289 21.1677C46.7139 18.2361 44.3171 15.8511 41.3853 15.8511H29.3079C26.3762 15.8511 23.9791 18.2362 23.9644 21.1677C23.9644 21.1677 23.8854 37.921 23.8936 38.0017L21.5221 38.7605L17.1637 35.5549C16.7416 35.2444 16.3443 35.2758 16.0892 35.2758C15.2764 35.725 14.3629 35.9606 13.4342 35.9605C12.5054 35.9615 11.5916 35.7258 10.7791 35.2758H9.59134C7.72649 35.2758 6.20191 36.7928 6.19281 38.6573L6.13972 49.208C6.13577 50.0011 6.77534 50.6473 7.56858 50.6513H7.57601C8.36576 50.6513 9.00805 50.0131 9.012 49.2224L9.06509 38.6717C9.06529 38.592 9.09715 38.5157 9.15365 38.4594C9.21015 38.4032 9.28667 38.3718 9.36637 38.372C9.44607 38.3722 9.52243 38.404 9.57864 38.4605C9.63486 38.517 9.66633 38.5935 9.66613 38.6732C9.66537 52.1208 9.63488 42.0787 9.63488 59.9097C9.63488 60.2419 9.7306 60.5512 9.89352 60.8144H8.2755C7.01882 60.8144 6 61.8332 6 63.0899C6 64.3466 7.01882 65.3654 8.2755 65.3654H41.5792V72.7245C41.5792 73.9812 42.598 75 43.8547 75C45.1114 75 46.1302 73.9812 46.1302 72.7245V63.0899C46.1302 61.8332 45.1114 60.8144 43.8547 60.8144H40.74C41.1133 60.3393 41.3161 59.7525 41.3158 59.1483V45.7556H35.8967V59.1483C35.8967 59.7772 36.113 60.3546 36.4725 60.8144H34.1511C34.5243 60.3393 34.7271 59.7525 34.7269 59.1483V45.7556H29.3077V59.1483C29.3077 59.7772 29.5241 60.3546 29.8836 60.8144H17.0139C17.1829 60.5429 17.2724 60.2295 17.2725 59.9097L17.2731 39.201L20.4107 41.5087C20.5936 41.6431 20.8057 41.7323 21.0296 41.769C21.2536 41.8056 21.4831 41.7887 21.6993 41.7195C23.6363 41.1508 24.9681 40.6071 26.8214 39.9202C27.7172 39.6367 28.3918 38.7946 28.3969 37.7793L28.4804 21.1906C28.4843 21.0768 28.5323 20.9691 28.6143 20.8901C28.6963 20.8111 28.8058 20.7671 28.9196 20.7673C29.0334 20.7676 29.1427 20.8122 29.2243 20.8915C29.3059 20.9709 29.3534 21.0789 29.3567 21.1927V30.488H41.3169V21.1929C41.3166 21.0741 41.3635 20.96 41.4473 20.8758C41.5311 20.7916 41.6449 20.7441 41.7637 20.7438C41.8825 20.7435 41.9966 20.7904 42.0808 20.8742C42.1651 20.958 42.2125 21.0718 42.2128 21.1906L42.2961 37.7793C42.3025 39.0329 43.329 40.0259 44.5539 40.0259L44.5654 40.0256ZM12.823 60.8143C12.992 60.5427 13.0816 60.2293 13.0816 59.9095V49.0386H13.8257V59.9095C13.8257 60.2417 13.9215 60.5511 14.0844 60.8143H12.823Z" fill="#0E0C0D"/>
</svg>
