<svg width="80" height="80" viewBox="0 0 80 80" fill="none" xmlns="http://www.w3.org/2000/svg">
<path d="M70.2273 27.2727H52.7273V9.77273C52.7273 7.14136 50.5859 5 47.9545 5H32.0455C29.4141 5 27.2727 7.14136 27.2727 9.77273V27.2727H9.77273C7.14136 27.2727 5 29.4141 5 32.0455V47.9545C5 50.5859 7.14136 52.7273 9.77273 52.7273H27.2727V70.2273C27.2727 72.8586 29.4141 75 32.0455 75H47.9545C50.5859 75 52.7273 72.8586 52.7273 70.2273V52.7273H70.2273C72.8586 52.7273 75 50.5859 75 47.9545V32.0455C75 29.4141 72.8586 27.2727 70.2273 27.2727Z" fill="#0E0C0D"/>
</svg>
