<svg width="80" height="80" viewBox="0 0 80 80" fill="none" xmlns="http://www.w3.org/2000/svg">
<path d="M62.5837 57.6312L51.41 54.8371L50.4591 51.0338C53.4487 48.0734 55.4962 44.0075 56.1029 39.8366C57.7595 39.37 59.0429 37.9495 59.2645 36.1675L59.9936 30.3341C60.1482 29.1032 59.769 27.8579 58.9524 26.9245C58.4778 26.3815 57.8767 25.9638 57.2024 25.7082L57.4707 20.2161L58.5616 19.1224C60.2037 17.3752 61.5657 14.3799 58.7191 10.034C56.5316 6.69463 52.8159 5 47.6709 5C45.6409 5 40.9684 5 36.6168 7.9225C24.1916 8.18213 22.5 13.9541 22.5 19.5834C22.5 20.893 22.8179 23.8418 23.0279 25.6209C22.2701 25.8597 21.5923 26.3015 21.0679 26.8984C20.6574 27.3636 20.3505 27.9108 20.1675 28.5037C19.9845 29.0965 19.9295 29.7215 20.0062 30.3371L20.7354 36.1705C20.9745 38.0721 22.4182 39.5684 24.2441 39.9243C24.8479 43.9346 26.7904 47.8693 29.6079 50.7801L28.5929 54.843L17.4191 57.6371C10.1041 59.46 5 65.9991 5 73.5416C5 74.3466 5.65338 75 6.45838 75H73.5418C74.3468 75 75.0001 74.3409 75.0001 73.5359C75.0046 69.8788 73.7843 66.3256 71.5339 63.443C69.2835 60.5603 66.1326 58.5143 62.5837 57.6312Z" fill="#0E0C0D"/>
</svg>
