<svg width="80" height="80" viewBox="0 0 80 80" fill="none" xmlns="http://www.w3.org/2000/svg">
<path d="M35.3126 14.3596C37.8972 14.3596 39.9924 12.2644 39.9924 9.67978C39.9924 7.09521 37.8972 5 35.3126 5C32.728 5 30.6328 7.09521 30.6328 9.67978C30.6328 12.2644 32.728 14.3596 35.3126 14.3596Z" fill="#0E0C0D"/>
<path d="M28.731 42.7397C28.7242 42.8531 28.7406 42.9668 28.7793 43.0736C28.818 43.1805 28.8781 43.2783 28.956 43.361C29.0338 43.4438 29.1278 43.5097 29.2321 43.5548C29.3364 43.5999 29.4488 43.6232 29.5625 43.6232H34.1835C34.3821 43.6232 34.5741 43.5523 34.7249 43.4233C34.8758 43.2943 34.9757 43.1156 35.0065 42.9195L35.3369 40.8156L35.8154 42.9708C35.8564 43.1558 35.9594 43.3214 36.1073 43.44C36.2551 43.5586 36.4391 43.6233 36.6286 43.6232H41.1114C41.225 43.6232 41.3374 43.5999 41.4417 43.5548C41.546 43.5097 41.64 43.4438 41.7179 43.361C41.7958 43.2783 41.8559 43.1805 41.8946 43.0736C41.9333 42.9668 41.9497 42.8531 41.9428 42.7397L41.3171 35.97H29.3569L28.731 42.7397ZM29.3568 32.415H41.3169V34.3397H29.3568V32.415ZM71.1094 70.3025C69.9005 71.5114 67.9334 71.5114 66.7246 70.3025C64.037 67.6148 59.6641 67.6148 56.9764 70.3025C55.7675 71.5114 53.8004 71.5114 52.5917 70.3025C51.8512 69.5619 50.6504 69.5619 49.91 70.3025C49.1694 71.0429 49.1694 72.2436 49.91 72.9842C52.5976 75.6719 56.9705 75.6719 59.6582 72.9842C60.8671 71.7753 62.834 71.7753 64.0429 72.9842C65.3867 74.328 67.1518 74.9999 68.917 74.9999C70.6822 74.9999 72.4472 74.328 73.7911 72.9842C74.5317 72.2438 74.5317 71.0431 73.7911 70.3025C73.0505 69.5619 71.8497 69.5619 71.1094 70.3025Z" fill="#0E0C0D"/>
<path d="M59.6582 65.8493C60.8671 64.6404 62.834 64.6404 64.0429 65.8493C65.3866 67.1931 67.1518 67.865 68.917 67.865C70.6822 67.865 72.4472 67.1931 73.7911 65.8493C74.5317 65.1089 74.5317 63.9082 73.7911 63.1676C73.0507 62.427 71.8498 62.427 71.1094 63.1676C69.9005 64.3765 67.9334 64.3765 66.7246 63.1676C64.037 60.4799 59.6641 60.4799 56.9764 63.1676C55.7675 64.3765 53.8004 64.3765 52.5917 63.1676C51.8512 62.427 50.6504 62.427 49.9099 63.1676C49.1693 63.908 49.1693 65.1087 49.9099 65.8493C52.5976 68.537 56.9705 68.537 59.6582 65.8493Z" fill="#0E0C0D"/>
<path d="M44.5654 40.0256C45.8125 40.0194 46.8184 39.0033 46.8122 37.7564L46.7289 21.1677C46.7139 18.2361 44.3171 15.8511 41.3853 15.8511H29.3079C26.3762 15.8511 23.9791 18.2362 23.9644 21.1677L23.9643 37.8022C23.9707 39.0558 24.9972 40.0488 26.222 40.0488L26.2336 40.0485C27.4807 40.0423 28.4866 39.0262 28.4804 37.7793V21.1906C28.4843 21.0768 28.5323 20.9691 28.6143 20.8901C28.6963 20.8111 28.8058 20.7671 28.9196 20.7673C29.0334 20.7676 29.1427 20.8122 29.2243 20.8915C29.3059 20.9709 29.3534 21.0789 29.3567 21.1927V30.488H41.3169V21.1929C41.3166 21.0741 41.3635 20.96 41.4473 20.8758C41.5311 20.7916 41.6449 20.7441 41.7637 20.7438C41.8825 20.7435 41.9966 20.7904 42.0808 20.8742C42.1651 20.958 42.2125 21.0718 42.2128 21.1906L42.2961 37.7793C42.3025 39.0329 43.3291 40.0259 44.5539 40.0259L44.5654 40.0256Z" fill="#0E0C0D"/>
<path d="M9.89352 60.8144H8.2755C7.01882 60.8144 6 61.8332 6 63.0899C6 64.3466 7.01882 65.3654 8.2755 65.3654H41.5792V72.7245C41.5792 73.9812 42.598 75 43.8547 75C45.1114 75 46.1302 73.9812 46.1302 72.7245V63.0899C46.1302 61.8332 45.1114 60.8144 43.8547 60.8144H40.74C41.1133 60.3393 41.3161 59.7525 41.3158 59.1483V45.7556H35.8967V59.1483C35.8967 59.7772 36.113 60.3546 36.4725 60.8144H34.1511C34.5243 60.3393 34.7271 59.7525 34.7269 59.1483V45.7556H29.3077V59.1483C29.3077 59.7772 29.5241 60.3546 29.8836 60.8144H9.89352Z" fill="#0E0C0D"/>
</svg>
