<svg width="80" height="80" viewBox="0 0 80 80" fill="none" xmlns="http://www.w3.org/2000/svg">
<path d="M24.4444 66.9444H8.88889C6.55556 66.9444 5 65.3889 5 63.0556C5 60.7222 6.55556 59.1667 8.88889 59.1667H20.5556V47.5C20.5556 45.1667 22.1111 43.6111 24.4444 43.6111H36.1111V31.9444C36.1111 29.6111 37.6667 28.0556 40 28.0556H51.6667V16.3889C51.6667 14.0556 53.2222 12.5 55.5556 12.5H71.1111C73.4444 12.5 75 14.0556 75 16.3889C75 18.7222 73.4444 20.2778 71.1111 20.2778H59.4444V31.9444C59.4444 34.2778 57.8889 35.8333 55.5556 35.8333H43.8889V47.5C43.8889 49.8333 42.3333 51.3889 40 51.3889H28.3333V63.0556C28.3333 65.3889 26.7778 66.9444 24.4444 66.9444Z" fill="#0E0C0D"/>
</svg>
