<svg width="80" height="80" viewBox="0 0 80 80" fill="none" xmlns="http://www.w3.org/2000/svg">
<path fill-rule="evenodd" clip-rule="evenodd" d="M50.8929 71.7167V75H29.4643V71.7167C29.4643 69.911 30.9417 68.4336 32.7474 68.4336H37.334V56.5236H43.023V68.4336H47.6096C49.4153 68.4336 50.8927 69.911 50.8927 71.7167H50.8929ZM51.9153 10.4901H28.4486C28.2626 10.4901 28.1043 10.6451 28.1043 10.8283V36.6499C28.1043 36.8344 28.2627 36.99 28.4486 36.99H51.9153C52.0943 36.99 52.2527 36.8344 52.2527 36.6499V10.8283C52.2527 10.6451 52.0944 10.4901 51.9153 10.4901ZM57.8571 7.96229V51.5613C57.8571 53.1906 56.5241 54.5236 54.8947 54.5236H25.4623C23.833 54.5236 22.5 53.1906 22.5 51.5613V7.96229C22.5 6.333 23.833 5 25.4623 5H54.8947C56.5241 5 57.8571 6.333 57.8571 7.96229ZM33.3526 49.0339C33.3526 48.7686 33.2472 48.5143 33.0597 48.3268C32.8721 48.1392 32.6178 48.0339 32.3526 48.0339H28.4687C28.2035 48.0339 27.9491 48.1392 27.7616 48.3268C27.5741 48.5143 27.4687 48.7686 27.4687 49.0339C27.4687 49.2991 27.5741 49.5534 27.7616 49.741C27.9491 49.9285 28.2035 50.0339 28.4687 50.0339H32.3526C32.6178 50.0339 32.8721 49.9285 33.0597 49.741C33.2472 49.5534 33.3526 49.2991 33.3526 49.0339ZM33.7141 42.5496C33.7137 42.3846 33.648 42.2264 33.5313 42.1098C33.4147 41.9931 33.2566 41.9273 33.0916 41.9269H27.7299C27.5649 41.9273 27.4067 41.9931 27.2901 42.1098C27.1734 42.2264 27.1077 42.3846 27.1073 42.5496V44.258C27.1077 44.423 27.1734 44.5811 27.2901 44.6978C27.4067 44.8145 27.5649 44.8803 27.7299 44.8807H33.0916C33.2566 44.8803 33.4147 44.8145 33.5313 44.6978C33.648 44.5811 33.7137 44.423 33.7141 44.258V42.5496ZM43.1204 49.0339C43.1204 48.7686 43.0151 48.5143 42.8275 48.3268C42.64 48.1392 42.3856 48.0339 42.1204 48.0339H38.2366C37.9714 48.0339 37.717 48.1392 37.5295 48.3268C37.3419 48.5143 37.2366 48.7686 37.2366 49.0339C37.2366 49.2991 37.3419 49.5534 37.5295 49.741C37.717 49.9285 37.9714 50.0339 38.2366 50.0339H42.1204C42.3856 50.0339 42.64 49.9285 42.8275 49.741C43.0151 49.5534 43.1204 49.2991 43.1204 49.0339ZM43.482 42.5496C43.4815 42.3846 43.4158 42.2264 43.2991 42.1097C43.1824 41.9931 43.0243 41.9273 42.8593 41.9269H37.4976C37.3326 41.9273 37.1745 41.9931 37.0578 42.1098C36.9411 42.2265 36.8753 42.3846 36.8749 42.5496V44.258C36.8753 44.423 36.9411 44.5811 37.0577 44.6978C37.1744 44.8145 37.3326 44.8803 37.4976 44.8807H42.8593C43.0243 44.8802 43.1824 44.8145 43.2991 44.6978C43.4157 44.5811 43.4815 44.423 43.482 44.258V42.5496ZM52.8883 49.0339C52.8883 48.7686 52.7829 48.5143 52.5954 48.3268C52.4079 48.1392 52.1535 48.0339 51.8883 48.0339H48.0044C47.7392 48.0339 47.4849 48.1392 47.2973 48.3268C47.1098 48.5143 47.0044 48.7686 47.0044 49.0339C47.0044 49.2991 47.1098 49.5534 47.2973 49.741C47.4849 49.9285 47.7392 50.0339 48.0044 50.0339H51.8883C52.1535 50.0339 52.4079 49.9285 52.5954 49.741C52.7829 49.5534 52.8883 49.2991 52.8883 49.0339ZM53.2499 42.5496C53.2494 42.3846 53.1837 42.2264 53.0671 42.1098C52.9504 41.9931 52.7923 41.9273 52.6273 41.9269H47.2656C47.1006 41.9273 46.9425 41.9931 46.8258 42.1098C46.7091 42.2264 46.6434 42.3846 46.643 42.5496V44.258C46.6434 44.423 46.7091 44.5811 46.8258 44.6978C46.9425 44.8145 47.1006 44.8803 47.2656 44.8807H52.6273C52.7923 44.8803 52.9504 44.8145 53.0671 44.6978C53.1837 44.5811 53.2494 44.423 53.2499 44.258V42.5496ZM54.2496 10.8281C54.2496 9.53971 53.203 8.48971 51.9153 8.48971H28.4486C27.1609 8.48971 26.1074 9.53971 26.1074 10.8281V36.6497C26.1074 37.9394 27.161 38.9896 28.4486 38.9896H51.9153C53.2029 38.9896 54.2496 37.9396 54.2496 36.6497V10.8281Z" fill="#0E0C0D"/>
</svg>
