<svg width="80" height="80" viewBox="0 0 80 80" fill="none" xmlns="http://www.w3.org/2000/svg">
<path d="M49.1566 30.4214C71.9306 30.4214 70.2481 30.4166 70.5988 30.4302C70.3868 29.618 69.9619 28.8771 69.3679 28.284L63.124 22.0402C61.7748 20.6908 59.7034 20.2986 57.969 21.0646C57.0377 21.4761 55.928 21.2684 55.2077 20.5481C54.4874 19.8279 54.2799 18.7182 54.6911 17.7869C55.4571 16.053 55.0651 13.9813 53.7155 12.6318L47.4717 6.3879C45.621 4.53743 42.6099 4.5373 40.7592 6.3879L32.9474 14.1996L49.1566 30.4214ZM30.0358 17.1114L16.7258 30.4214H43.3332C43.2851 30.3731 42.2668 29.3537 30.0358 17.1114ZM72.0446 52.4506C73.8123 51.7663 75 50.024 75 48.1156V39.2856C75 36.6684 72.8706 34.539 70.2535 34.539H60.5882V74.9978H70.2535C72.8706 74.9978 75 72.8684 75 70.2512V61.4212C75 59.513 73.8125 57.7706 72.0448 57.0862C71.0952 56.7183 70.4573 55.7869 70.4573 54.7683C70.4573 53.7498 71.0952 52.8184 72.0446 52.4506ZM5 39.2856V48.1156C5 50.024 6.18767 51.7663 7.95524 52.4505C8.90476 52.8184 9.54259 53.7498 9.54259 54.7683C9.54259 55.7869 8.90463 56.7183 7.9551 57.0862C6.18753 57.7706 5 59.5128 5 61.4212V70.2512C5 72.8684 7.12937 74.9978 9.74655 74.9978H56.4706V34.539H9.74655C7.12937 34.539 5 36.6683 5 39.2856ZM19.4118 44.1154H50.2941V48.2331H19.4118V44.1154ZM19.4118 52.3507H50.2941V56.4684H19.4118V52.3507ZM19.4118 60.586H50.2941V64.7037H19.4118V60.586Z" fill="#0E0C0D"/>
</svg>
