<svg width="70" height="70" viewBox="0 0 70 70" fill="none" xmlns="http://www.w3.org/2000/svg">
<path d="M59.3839 48.528L53.2793 42.4233C51.6168 40.7608 52.7951 37.9171 55.146 37.9171H67.3553C69.7061 37.9171 70.8845 40.7608 69.222 42.4233L63.1173 48.528C62.0877 49.5576 60.4135 49.5576 59.3839 48.528ZM59.3839 21.4727L53.2793 27.5774C51.6168 29.2399 52.7951 32.0837 55.146 32.0837H67.3553C69.7061 32.0837 70.8845 29.2399 69.222 27.5774L63.1173 21.4727C62.0877 20.4431 60.4135 20.4431 59.3839 21.4727ZM26.2503 0H14.5835C6.54215 0 0 6.54215 0 14.5835V55.4172C0 63.4586 6.54215 70.0007 14.5835 70.0007H26.2503V0ZM55.2597 17.3456C56.1581 16.4502 57.2139 15.8172 58.3339 15.4089V14.5835C58.3339 6.54215 51.7918 0 43.7504 0H32.0837V70.0007H43.7504C51.7918 70.0007 58.3339 63.4586 58.3339 55.4172V54.5918C57.2139 54.1805 56.1581 53.5505 55.2597 52.6551L49.1522 46.5505C46.7196 44.1209 45.9992 40.4954 47.3146 37.3191C47.6734 36.4529 48.1692 35.6829 48.7613 35.0033C48.1722 34.3237 47.6734 33.5508 47.3146 32.6874C45.9992 29.5111 46.7196 25.8857 49.1522 23.4532L55.2597 17.3456Z" fill="white"/>
</svg>
