<svg width="70" height="55" viewBox="0 0 70 55" fill="none" xmlns="http://www.w3.org/2000/svg">
<path d="M19.4444 54.9444H3.88889C1.55556 54.9444 0 53.3889 0 51.0556C0 48.7222 1.55556 47.1667 3.88889 47.1667H15.5556V35.5C15.5556 33.1667 17.1111 31.6111 19.4444 31.6111H31.1111V19.9444C31.1111 17.6111 32.6667 16.0556 35 16.0556H46.6667V4.38889C46.6667 2.05556 48.2222 0.5 50.5556 0.5H66.1111C68.4444 0.5 70 2.05556 70 4.38889C70 6.72222 68.4444 8.27778 66.1111 8.27778H54.4444V19.9444C54.4444 22.2778 52.8889 23.8333 50.5556 23.8333H38.8889V35.5C38.8889 37.8333 37.3333 39.3889 35 39.3889H23.3333V51.0556C23.3333 53.3889 21.7778 54.9444 19.4444 54.9444Z" fill="white"/>
</svg>
