<svg width="64" height="64" viewBox="0 0 64 64" fill="none" xmlns="http://www.w3.org/2000/svg">
<path d="M57.4545 29.5307H12.6897L26.1629 16.2982C26.4061 16.0676 26.6 15.7917 26.7334 15.4867C26.8668 15.1817 26.937 14.8537 26.94 14.5217C26.9429 14.1898 26.8785 13.8606 26.7505 13.5533C26.6225 13.2461 26.4335 12.967 26.1945 12.7322C25.9555 12.4975 25.6713 12.3119 25.3585 12.1862C25.0456 12.0605 24.7104 11.9972 24.3725 12.0001C24.0345 12.003 23.7004 12.0719 23.3899 12.203C23.0793 12.334 22.7985 12.5244 22.5636 12.7632L4.74528 30.2632C4.26808 30.732 4 31.3678 4 32.0307C4 32.6936 4.26808 33.3294 4.74528 33.7982L22.5636 51.2982C23.0437 51.7536 23.6867 52.0056 24.3541 51.9999C25.0215 51.9942 25.66 51.7313 26.1319 51.2678C26.6039 50.8042 26.8716 50.1772 26.8774 49.5217C26.8832 48.8662 26.6266 48.2347 26.1629 47.7632L12.6897 34.5307H57.4545C58.1296 34.5307 58.7771 34.2673 59.2544 33.7985C59.7318 33.3296 60 32.6938 60 32.0307C60 31.3677 59.7318 30.7318 59.2544 30.263C58.7771 29.7941 58.1296 29.5307 57.4545 29.5307Z" fill="#0E0C0D"/>
</svg>
