<svg width="64" height="64" viewBox="0 0 64 64" fill="none" xmlns="http://www.w3.org/2000/svg">
<path d="M37.6563 32L54.8281 14.8281C56.3906 13.2656 56.3906 10.7344 54.8281 9.17188C53.2656 7.60938 50.7344 7.60938 49.1719 9.17188L32 26.3438L14.8281 9.17188C13.2656 7.60938 10.7344 7.60938 9.17188 9.17188C7.60938 10.7344 7.60938 13.2656 9.17188 14.8281L26.3438 32L9.17188 49.1719C7.60938 50.7344 7.60938 53.2656 9.17188 54.8281C9.95312 55.6094 10.9766 56 12 56C13.0234 56 14.0469 55.6094 14.8281 54.8281L32 37.6563L49.1719 54.8281C49.9531 55.6094 50.9766 56 52 56C53.0234 56 54.0469 55.6094 54.8281 54.8281C56.3906 53.2656 56.3906 50.7344 54.8281 49.1719L37.6563 32Z" fill="#0E0C0D"/>
</svg>
