<svg width="64" height="64" viewBox="0 0 64 64" fill="none" xmlns="http://www.w3.org/2000/svg">
<path d="M21.3004 4C20.2004 4 19.3004 4.9 19.3004 6V7.82H16.1804C10.5204 7.82 5.90039 12.42 5.90039 18.08V49.74C5.90039 55.4 10.5204 60 16.1804 60H47.8204C53.4804 60 58.1004 55.4 58.1004 49.74V18.08C58.1004 12.42 53.4804 7.82 47.8204 7.82H44.7004V6C44.7004 4.9 43.8004 4 42.7004 4C41.5804 4 40.7004 4.9 40.7004 6V7.82H23.3004V6C23.3004 4.9 22.4204 4 21.3004 4ZM24.6204 25.74C24.8094 25.7169 24.9894 25.646 25.1433 25.534C25.2973 25.4221 25.4202 25.2727 25.5004 25.1L27.3604 21.32C28.2404 19.54 30.0204 18.44 32.0004 18.44C33.9804 18.44 35.7604 19.54 36.6404 21.32L38.5004 25.1C38.6804 25.46 39.0004 25.7 39.3804 25.74L43.5604 26.36C45.5404 26.64 47.1404 27.98 47.7404 29.88C48.3604 31.76 47.8604 33.8 46.4404 35.18L43.4204 38.12C43.281 38.2509 43.1769 38.4148 43.1175 38.5965C43.058 38.7783 43.0453 38.972 43.0804 39.16L43.7804 43.32C44.1204 45.28 43.3404 47.22 41.7404 48.38C40.8204 49.04 39.7604 49.38 38.7004 49.38C37.8804 49.38 37.0404 49.18 36.2804 48.78L32.5404 46.82C32.3742 46.7314 32.1887 46.6851 32.0004 46.6851C31.812 46.6851 31.6266 46.7314 31.4604 46.82L27.7204 48.78C25.9604 49.7 23.8804 49.54 22.2604 48.38C21.4779 47.8147 20.8712 47.0396 20.5103 46.1444C20.1493 45.2491 20.0488 44.27 20.2204 43.32L20.9204 39.16C20.9555 38.972 20.9427 38.7783 20.8833 38.5965C20.8239 38.4148 20.7197 38.2509 20.5804 38.12L17.5604 35.18C16.866 34.5091 16.3755 33.6554 16.1454 32.7176C15.9154 31.7798 15.9553 30.7961 16.2604 29.88C16.8604 27.98 18.4604 26.64 20.4404 26.36L24.6204 25.74Z" fill="#0E0C0D"/>
<path d="M20.0605 31.12C20.0005 31.32 19.8805 31.86 20.3605 32.32L23.3805 35.26C24.6005 36.44 25.1605 38.16 24.8605 39.84L24.1605 44C24.0405 44.64 24.4405 45.02 24.6205 45.14C24.8005 45.28 25.2805 45.54 25.8605 45.24L29.6005 43.28C30.3387 42.8845 31.1631 42.6776 32.0005 42.6776C32.8379 42.6776 33.6624 42.8845 34.4005 43.28L38.1405 45.24C38.7205 45.54 39.2005 45.28 39.3805 45.14C39.5605 45.02 39.9605 44.64 39.8405 44L39.1405 39.84C38.8405 38.16 39.4005 36.44 40.6205 35.26L43.6405 32.32C44.1205 31.86 44.0005 31.32 43.9405 31.12C43.8816 30.9081 43.7606 30.7186 43.5931 30.576C43.4255 30.4335 43.2192 30.3443 43.0005 30.32L38.8205 29.7C37.9903 29.5822 37.2012 29.2639 36.5216 28.7725C35.8421 28.2812 35.2925 27.6316 34.9205 26.88L33.0605 23.08C32.7605 22.5 32.2205 22.44 32.0005 22.44C31.7805 22.44 31.2405 22.5 30.9405 23.08L29.0805 26.88C28.7086 27.6316 28.159 28.2812 27.4794 28.7725C26.7999 29.2639 26.0108 29.5822 25.1805 29.7L21.0005 30.32C20.3605 30.4 20.1205 30.9 20.0605 31.12Z" fill="#0E0C0D"/>
</svg>
