<svg width="64" height="64" viewBox="0 0 64 64" fill="none" xmlns="http://www.w3.org/2000/svg">
<path d="M55.5207 8.48136C55.2909 8.25087 54.9975 8.09409 54.6782 8.03103C54.3588 7.96797 54.0279 8.00149 53.7277 8.1273L1.00618 30.2228C0.35024 30.4977 -0.0538059 31.1646 0.00580563 31.8738C0.0654171 32.583 0.575123 33.1729 1.26771 33.3342L24.238 38.6844C24.4556 38.735 24.6547 38.8454 24.8129 39.003C24.9712 39.1606 25.0824 39.3592 25.134 39.5766L30.6269 62.7251C30.712 63.0843 30.9158 63.4042 31.2053 63.6332C31.4948 63.8621 31.8531 63.9867 32.2223 63.9867C32.545 63.9865 32.8605 63.891 33.1292 63.7122C33.3979 63.5335 33.6078 63.2794 33.7327 62.9818L55.8718 10.2766C55.998 9.97628 56.032 9.64523 55.9695 9.32555C55.907 9.00587 55.7507 8.71201 55.5207 8.48136Z" fill="#0E0C0D"/>
</svg>
