<svg width="64" height="64" viewBox="0 0 64 64" fill="none" xmlns="http://www.w3.org/2000/svg">
<path d="M58.4962 28.3573C58.4944 28.3561 58.4931 28.3543 58.4918 28.353L35.646 5.51047C34.6721 4.53616 33.3774 4 32.0003 4C30.6232 4 29.3285 4.53616 28.3543 5.51036L5.52028 28.3414C5.51262 28.3491 5.50453 28.3572 5.49731 28.3649C3.49751 30.3759 3.50101 33.6388 5.50715 35.6447C6.42359 36.5616 7.63362 37.0923 8.92798 37.1482C8.98093 37.1533 9.03398 37.1558 9.08736 37.1558H9.99745V53.9663C9.99745 57.2933 12.7048 59.9999 16.0321 59.9999H24.9701C25.8764 59.9999 26.6109 59.265 26.6109 58.3593V45.1797C26.6109 43.6617 27.8462 42.4269 29.3644 42.4269H34.6362C36.1545 42.4269 37.3892 43.6618 37.3892 45.1797V58.3594C37.3892 59.2651 38.1238 60 39.03 60H47.9681C51.2958 60 54.0027 57.2934 54.0027 53.9664V37.1559H54.847C56.2238 37.1559 57.5185 36.6197 58.4931 35.6451C60.5014 33.6362 60.5023 30.3675 58.4962 28.3573ZM56.1725 33.3253C55.9988 33.5 55.7923 33.6384 55.5648 33.7328C55.3373 33.8271 55.0933 33.8754 54.847 33.8748H52.3618C51.4555 33.8748 50.721 34.6091 50.721 35.5154V53.9664C50.721 55.484 49.4861 56.7188 47.968 56.7188H40.6708V45.1797C40.6708 41.8527 37.9639 39.1457 34.6361 39.1457H29.3645C26.0367 39.1457 23.3294 41.8527 23.3294 45.1797V56.7188H16.0323C14.5144 56.7188 13.2791 55.4839 13.2791 53.9664V35.5153C13.2791 34.609 12.5446 33.8747 11.6384 33.8747H9.19587C9.17027 33.8729 9.14463 33.8717 9.11897 33.8712C8.63012 33.8627 8.17169 33.6687 7.82822 33.3247C7.09752 32.5941 7.09752 31.4052 7.82822 30.6742L7.82898 30.6733L7.83029 30.672L30.6752 7.83031C30.8488 7.65564 31.0553 7.51717 31.2827 7.42291C31.5102 7.32866 31.7541 7.28051 32.0003 7.28125C32.5007 7.28125 32.9711 7.47605 33.3253 7.83031L56.1651 30.6674L56.1759 30.6777C56.9027 31.4096 56.9014 32.5961 56.1725 33.3253Z" fill="#0E0C0D"/>
<path d="M56.1725 33.3253C55.9988 33.5 55.7923 33.6384 55.5648 33.7328C55.3373 33.8271 55.0933 33.8754 54.847 33.8748H52.3618C51.4555 33.8748 50.721 34.6091 50.721 35.5154V53.9664C50.721 55.484 49.4861 56.7188 47.968 56.7188H40.6708V45.1797C40.6708 41.8527 37.9639 39.1457 34.6361 39.1457H29.3645C26.0367 39.1457 23.3294 41.8527 23.3294 45.1797V56.7188H16.0323C14.5144 56.7188 13.2791 55.4839 13.2791 53.9664V35.5153C13.2791 34.609 12.5446 33.8747 11.6384 33.8747H9.19587C9.17027 33.8729 9.14463 33.8717 9.11897 33.8712C8.63012 33.8627 8.17169 33.6687 7.82822 33.3247C7.09752 32.5941 7.09752 31.4052 7.82822 30.6742L7.82898 30.6733L7.83029 30.672L30.6752 7.83031C30.8488 7.65564 31.0553 7.51717 31.2827 7.42291C31.5102 7.32866 31.7541 7.28051 32.0003 7.28125C32.5007 7.28125 32.9711 7.47605 33.3253 7.83031L56.1651 30.6674L56.1759 30.6777C56.9027 31.4096 56.9014 32.5961 56.1725 33.3253Z" fill="#0E0C0D"/>
</svg>
