<svg width="56" height="56" viewBox="0 0 56 56" fill="none" xmlns="http://www.w3.org/2000/svg">
<path d="M28 0C22.4621 0 17.0486 1.64217 12.444 4.71885C7.83947 7.79553 4.25064 12.1685 2.13139 17.2849C0.012132 22.4012 -0.542361 28.0311 0.538025 33.4625C1.61841 38.894 4.28515 43.8831 8.20102 47.799C12.1169 51.7149 17.106 54.3816 22.5375 55.462C27.9689 56.5424 33.5988 55.9879 38.7151 53.8686C43.8315 51.7494 48.2045 48.1605 51.2811 43.556C54.3578 38.9514 56 33.5379 56 28C55.992 20.5764 53.0394 13.4592 47.7901 8.20988C42.5408 2.9606 35.4236 0.00802919 28 0ZM30.3333 42C30.3333 42.6188 30.0875 43.2123 29.6499 43.6499C29.2123 44.0875 28.6188 44.3333 28 44.3333C27.3812 44.3333 26.7877 44.0875 26.3501 43.6499C25.9125 43.2123 25.6667 42.6188 25.6667 42V23.3333C25.6667 22.7145 25.9125 22.121 26.3501 21.6834C26.7877 21.2458 27.3812 21 28 21C28.6188 21 29.2123 21.2458 29.6499 21.6834C30.0875 22.121 30.3333 22.7145 30.3333 23.3333V42ZM28 16.3333C27.5385 16.3333 27.0874 16.1965 26.7037 15.9401C26.32 15.6837 26.0209 15.3193 25.8443 14.8929C25.6677 14.4666 25.6215 13.9974 25.7115 13.5448C25.8015 13.0922 26.0238 12.6764 26.3501 12.3501C26.6764 12.0238 27.0922 11.8015 27.5448 11.7115C27.9974 11.6215 28.4666 11.6677 28.8929 11.8443C29.3193 12.0209 29.6837 12.32 29.9401 12.7037C30.1965 13.0874 30.3333 13.5385 30.3333 14C30.3333 14.6188 30.0875 15.2123 29.6499 15.6499C29.2123 16.0875 28.6188 16.3333 28 16.3333Z" fill="#0E0C0D"/>
</svg>
