<svg width="64" height="64" viewBox="0 0 64 64" fill="none" xmlns="http://www.w3.org/2000/svg">
<path d="M58.4442 4H18C17.141 4 16.4443 4.73762 16.4443 5.64726V55.0588C16.4386 56.8464 15.8784 58.5825 14.8497 60H52.2224C56.5159 59.9952 59.9953 56.3111 60 51.7643V5.64726C60 4.73778 59.3034 4 58.4442 4ZM49.1109 46.8232H27.3333C26.4744 46.8232 25.7776 46.0862 25.7776 45.1765C25.7776 44.2669 26.4742 43.5293 27.3333 43.5293H49.1109C49.9699 43.5293 50.6667 44.2669 50.6667 45.1765C50.6667 46.0862 49.97 46.8232 49.1109 46.8232ZM49.1109 36.9408H27.3333C26.4744 36.9408 25.7776 36.2038 25.7776 35.2942C25.7776 34.3846 26.4742 33.6469 27.3333 33.6469H49.1109C49.9699 33.6469 50.6667 34.3846 50.6667 35.2942C50.6667 36.2038 49.97 36.9408 49.1109 36.9408ZM49.1109 27.0585H27.3333C26.4744 27.0585 25.7776 26.3215 25.7776 25.4119C25.7776 24.5023 26.4742 23.7646 27.3333 23.7646H49.1109C49.9699 23.7646 50.6667 24.5023 50.6667 25.4119C50.6667 26.3215 49.97 27.0585 49.1109 27.0585ZM49.1109 17.1762H27.3333C26.4744 17.1762 25.7776 16.4392 25.7776 15.5296C25.7776 14.6199 26.4742 13.8823 27.3333 13.8823H49.1109C49.9699 13.8823 50.6667 14.6199 50.6667 15.5296C50.6667 16.4392 49.97 17.1762 49.1109 17.1762ZM11.7776 10.5884H5.55575C4.69679 10.5884 4 11.3254 4 12.2351V55.0588C4 57.7876 6.0895 60 8.66667 60C11.2438 60 13.3333 57.7876 13.3333 55.0588V12.2351C13.3333 11.3256 12.6367 10.5884 11.7776 10.5884Z" fill="#0E0C0D"/>
</svg>
