<svg width="64" height="64" viewBox="0 0 64 64" fill="none" xmlns="http://www.w3.org/2000/svg">
<path d="M52.3465 42.9768C48.9635 40.0834 45.5302 38.3307 42.1888 41.2198L40.1935 42.9659C38.7336 44.2334 36.0194 50.1559 25.5251 38.0837C15.033 26.0269 21.2767 24.1497 22.7387 22.8931L24.7449 21.1447C28.0689 18.2491 26.8145 14.6039 24.4171 10.8515L22.9704 8.57872C20.5621 4.83514 17.9396 2.37657 14.6069 5.26785L12.8061 6.84133C11.3332 7.91436 7.21588 11.4023 6.21716 18.0284C5.01519 25.9788 8.80685 35.0832 17.4938 45.0726C26.1698 55.0664 34.6644 60.0863 42.7111 59.9989C49.3984 59.9268 53.437 56.3383 54.7001 55.0337L56.5075 53.458C59.8314 50.5689 57.7662 47.6274 54.3811 44.7273L52.3465 42.9768Z" fill="#0E0C0D"/>
</svg>
