<svg width="48" height="48" viewBox="0 0 48 48" fill="none" xmlns="http://www.w3.org/2000/svg">
<path fill-rule="evenodd" clip-rule="evenodd" d="M24 0C24.5304 0 25.0391 0.210714 25.4142 0.585787C25.7893 0.96086 26 1.46957 26 2V22H46C46.5304 22 47.0391 22.2107 47.4142 22.5858C47.7893 22.9609 48 23.4696 48 24C48 24.5304 47.7893 25.0391 47.4142 25.4142C47.0391 25.7893 46.5304 26 46 26H26V46C26 46.5304 25.7893 47.0391 25.4142 47.4142C25.0391 47.7893 24.5304 48 24 48C23.4696 48 22.9609 47.7893 22.5858 47.4142C22.2107 47.0391 22 46.5304 22 46V26H2C1.46957 26 0.96086 25.7893 0.585787 25.4142C0.210714 25.0391 0 24.5304 0 24C0 23.4696 0.210714 22.9609 0.585787 22.5858C0.96086 22.2107 1.46957 22 2 22H22V2C22 1.46957 22.2107 0.96086 22.5858 0.585787C22.9609 0.210714 23.4696 0 24 0V0Z" fill="white"/>
</svg>
