<svg width="64" height="64" viewBox="0 0 64 64" fill="none" xmlns="http://www.w3.org/2000/svg">
<path d="M6.54547 24.3636C5.01821 24.3636 4 23.3454 4 21.8181V11.6363C4 7.30905 7.30905 4 11.6363 4H21.8181C23.3454 4 24.3636 5.01821 24.3636 6.54547C24.3636 8.07274 23.3454 9.09095 21.8181 9.09095H11.6363C10.1091 9.09095 9.09084 10.1092 9.09084 11.6364V21.8182C9.09095 23.3454 8.07274 24.3636 6.54547 24.3636ZM57.4544 24.3636C55.9272 24.3636 54.909 23.3454 54.909 21.8181V11.6363C54.909 10.1091 53.8907 9.09084 52.3635 9.09084H42.1817C40.6544 9.09084 39.6362 8.07263 39.6362 6.54537C39.6362 5.01811 40.6544 4 42.1817 4H52.3635C56.6907 4 59.9998 7.30905 59.9998 11.6363V21.8181C59.9999 23.3454 58.9817 24.3636 57.4544 24.3636ZM21.8181 59.9999H11.6363C7.30905 59.9999 4 56.6908 4 52.3636V42.1818C4 40.6545 5.01821 39.6363 6.54547 39.6363C8.07274 39.6363 9.09095 40.6545 9.09095 42.1818V52.3636C9.09095 53.8908 10.1092 54.9091 11.6364 54.9091H21.8182C23.3455 54.9091 24.3637 55.9273 24.3637 57.4545C24.3636 58.9817 23.3454 59.9999 21.8181 59.9999ZM52.3636 59.9999H42.1818C40.6545 59.9999 39.6363 58.9817 39.6363 57.4544C39.6363 55.9272 40.6545 54.909 42.1818 54.909H52.3636C53.8908 54.909 54.9091 53.8907 54.9091 52.3635V42.1817C54.9091 40.6544 55.9273 39.6362 57.4545 39.6362C58.9818 39.6362 60 40.6544 60 42.1817V52.3635C59.9999 56.6908 56.6908 59.9999 52.3636 59.9999Z" fill="#0E0C0D"/>
<path d="M26.9089 29.4544H16.7271C15.1999 29.4544 14.1816 28.4362 14.1816 26.909V16.7272C14.1816 15.1999 15.1999 14.1817 16.7271 14.1817H26.9089C28.4362 14.1817 29.4544 15.1999 29.4544 16.7272V26.909C29.4544 28.4362 28.4362 29.4544 26.9089 29.4544ZM19.2726 24.3635H24.3635V19.2725H19.2726V24.3635ZM26.9089 49.818H16.7271C15.1999 49.818 14.1816 48.7998 14.1816 47.2725V37.0908C14.1816 35.5635 15.1999 34.5453 16.7271 34.5453H26.9089C28.4362 34.5453 29.4544 35.5635 29.4544 37.0908V47.2725C29.4544 48.7998 28.4362 49.818 26.9089 49.818ZM19.2726 44.7271H24.3635V39.6361H19.2726V44.7271ZM47.2725 29.4544H37.0907C35.5634 29.4544 34.5452 28.4362 34.5452 26.909V16.7272C34.5452 15.1999 35.5634 14.1817 37.0907 14.1817H47.2725C48.7997 14.1817 49.818 15.1999 49.818 16.7272V26.909C49.818 28.4362 48.7997 29.4544 47.2725 29.4544ZM39.6362 24.3635H44.7271V19.2725H39.6362V24.3635ZM37.0907 42.1816C35.5634 42.1816 34.5452 41.1634 34.5452 39.6361V37.0907C34.5452 35.5634 35.5634 34.5452 37.0907 34.5452C38.618 34.5452 39.6362 35.5634 39.6362 37.0907V39.6361C39.6362 41.1635 38.618 42.1816 37.0907 42.1816ZM47.2725 39.6362H44.727C43.1997 39.6362 42.1815 38.618 42.1815 37.0908C42.1815 35.5635 43.1997 34.5453 44.727 34.5453H47.2725C48.7997 34.5453 49.818 35.5635 49.818 37.0908C49.818 38.618 48.7997 39.6362 47.2725 39.6362ZM47.2725 49.818H39.6362C38.1089 49.818 37.0907 48.7998 37.0907 47.2725C37.0907 45.7453 38.1089 44.7271 39.6362 44.7271H47.2725C48.7997 44.7271 49.818 45.7453 49.818 47.2725C49.818 48.7998 48.7997 49.818 47.2725 49.818Z" fill="#0E0C0D"/>
</svg>
