<svg width="80" height="80" viewBox="0 0 80 80" fill="none" xmlns="http://www.w3.org/2000/svg">
<path d="M5 39.1797H13.8867V51.4844H5V39.1797ZM5 55.5859V61.7383C5 62.8709 5.9182 63.7891 7.05078 63.7891H13.8867V55.5859H5ZM50.0961 5H29.9037L40 17.4645L50.0961 5ZM66.1133 39.1797H75V51.4844H66.1133V39.1797ZM66.1133 55.5859V63.7891H72.9492C74.0818 63.7891 75 62.8709 75 61.7383V55.5859H66.1133ZM31.6837 36.4453C30.301 36.4453 29.1763 37.5702 29.1763 38.9527V46.2426C29.1763 47.6251 30.3012 48.75 31.6837 48.75C33.0662 48.75 34.1911 47.6251 34.1911 46.2426V38.9527C34.1911 37.5702 33.0663 36.4453 31.6837 36.4453ZM17.9883 72.9492C17.9883 74.0818 18.9065 75 20.0391 75H59.9609C61.0935 75 62.0117 74.0818 62.0117 72.9492V67.8906H17.9883V72.9492Z" fill="#0E0C0D"/>
<path d="M63.0907 7.94113L54.6929 5.84167L41.5937 22.0136C41.4015 22.251 41.1586 22.4424 40.8829 22.5739C40.6071 22.7054 40.3055 22.7736 40 22.7736C39.6946 22.7736 39.393 22.7053 39.1172 22.5738C38.8415 22.4423 38.5987 22.2508 38.4064 22.0135L25.3073 5.84167L16.9094 7.94113C13.5058 8.78789 10.4837 10.75 8.32516 13.5146C6.16664 16.2791 4.99602 19.6869 5.00001 23.1943V35.0782H13.8867V28.9258C13.8867 27.7932 14.8049 26.875 15.9375 26.875C17.0701 26.875 17.9883 27.7932 17.9883 28.9258V63.7891H62.0117V28.9258C62.0117 27.7932 62.9299 26.875 64.0625 26.875C65.1951 26.875 66.1133 27.7932 66.1133 28.9258V35.0782H75V23.1943C75 15.9664 70.1027 9.694 63.0907 7.94113ZM38.2927 46.2426C38.2927 49.8867 35.3278 52.8516 31.6837 52.8516C28.0396 52.8516 25.0747 49.8867 25.0747 46.2426V38.9528C25.0747 35.3087 28.0396 32.3438 31.6837 32.3438C35.3278 32.3438 38.2927 35.3087 38.2927 38.9528V46.2426ZM52.9002 52.8144C50.6135 52.8431 48.941 52.8554 47.71 52.8554C44.5399 52.8554 44.2963 52.7741 44.0261 52.6841C43.354 52.4599 42.8514 51.9502 42.647 51.2855C42.3018 50.1628 42.8159 49.4894 43.8404 48.1482C44.6565 47.0796 46.1756 45.0906 48.7221 41.4521C49.4261 40.4461 49.8986 39.5181 50.0933 38.7611L50.1389 38.4036C50.0823 37.3142 49.1783 36.4455 48.075 36.4455C47.0893 36.4455 46.2366 37.1452 46.0471 38.1095C45.8286 39.2209 44.7511 39.9443 43.6395 39.7265C42.5281 39.5081 41.8041 38.4302 42.0225 37.3188C42.5888 34.4361 45.1343 32.3438 48.075 32.3438C51.4762 32.3438 54.2432 35.1108 54.2432 38.512C54.2432 38.5989 54.2378 38.6858 54.2267 38.772L54.1471 39.3945C54.1385 39.4628 54.1263 39.5305 54.1106 39.5975C53.8098 40.8953 53.1273 42.3106 52.0823 43.8037C50.5599 45.9789 49.3963 47.5777 48.5259 48.7484C49.9669 48.7431 51.4077 48.7313 52.8486 48.713C53.984 48.7029 54.9107 49.6052 54.925 50.7379C54.9394 51.8704 54.0328 52.8001 52.9002 52.8144Z" fill="#0E0C0D"/>
</svg>
